<svg width="1213" height="1045" xmlns="http://www.w3.org/2000/svg" xmlns:xlink="http://www.w3.org/1999/xlink" xml:space="preserve" overflow="hidden"><defs><clipPath id="clip0"><rect x="1594" y="351" width="1213" height="1045"/></clipPath><clipPath id="clip1"><rect x="1908" y="477" width="584" height="585"/></clipPath><clipPath id="clip2"><rect x="1908" y="477" width="584" height="585"/></clipPath><clipPath id="clip3"><rect x="1908" y="477" width="584" height="585"/></clipPath></defs><g clip-path="url(#clip0)" transform="translate(-1594 -351)"><path d="M1606.5 873.501 1862.5 361.5 2538.5 361.5 2794.5 873.501 2538.5 1385.5 1862.5 1385.5Z" stroke="#000000" stroke-width="20.625" stroke-miterlimit="8" fill="#F2F2F2" fill-rule="evenodd"/><text font-family="Arial,Arial_MSFontService,sans-serif" font-weight="700" font-size="165" transform="matrix(1 0 0 1 1897.5 1205)">easyDB</text><g clip-path="url(#clip1)"><g clip-path="url(#clip2)"><g clip-path="url(#clip3)"><path d="M462.333 109.5C462.333 136.378 386.072 158.167 292 158.167 197.927 158.167 121.667 136.378 121.667 109.5 121.667 82.6221 197.927 60.8333 292 60.8333 386.072 60.8333 462.333 82.6221 462.333 109.5Z" transform="matrix(1 0 0 1 1908 477)"/><path d="M413.666 231.167C406.366 231.167 401.5 226.3 401.5 219 401.5 211.7 406.366 206.833 413.666 206.833 420.966 206.833 425.833 211.7 425.833 219 425.833 226.3 420.966 231.167 413.666 231.167ZM292 182.5C198.317 182.5 121.667 160.6 121.667 133.833L121.667 231.167C121.667 257.933 198.317 279.833 292 279.833 385.683 279.833 462.333 257.933 462.333 231.167L462.333 133.833C462.333 160.6 385.683 182.5 292 182.5Z" transform="matrix(1 0 0 1 1908 477)"/><path d="M413.666 352.833C406.366 352.833 401.5 347.966 401.5 340.666 401.5 333.366 406.366 328.5 413.666 328.5 420.966 328.5 425.833 333.366 425.833 340.666 425.833 347.966 420.966 352.833 413.666 352.833ZM292 304.166C198.317 304.166 121.667 282.267 121.667 255.5L121.667 352.833C121.667 379.6 198.317 401.5 292 401.5 385.683 401.5 462.333 379.6 462.333 352.833L462.333 255.5C462.333 282.267 385.683 304.166 292 304.166Z" transform="matrix(1 0 0 1 1908 477)"/><path d="M413.666 474.5C406.366 474.5 401.5 469.633 401.5 462.333 401.5 455.033 406.366 450.166 413.666 450.166 420.966 450.166 425.833 455.033 425.833 462.333 425.833 469.633 420.966 474.5 413.666 474.5ZM292 425.833C198.317 425.833 121.667 403.933 121.667 377.166L121.667 474.5C121.667 501.266 198.317 523.166 292 523.166 385.683 523.166 462.333 501.266 462.333 474.5L462.333 377.166C462.333 403.933 385.683 425.833 292 425.833Z" transform="matrix(1 0 0 1 1908 477)"/></g></g></g></g></svg>